<?xml version="1.0" standalone="no"?>
<!DOCTYPE svg PUBLIC "-//W3C//DTD SVG 20010904//EN"
 "http://www.w3.org/TR/2001/REC-SVG-20010904/DTD/svg10.dtd">
<svg version="1.0" xmlns="http://www.w3.org/2000/svg"
 width="1024.000000pt" height="1024.000000pt" viewBox="0 0 1024.000000 1024.000000"
 preserveAspectRatio="xMidYMid meet">

<g transform="translate(0.000000,1024.000000) scale(0.100000,-0.100000)"
fill="#000000" stroke="none">
<path d="M5155 8894 c-324 -30 -587 -153 -796 -371 -150 -158 -232 -317 -280
-543 -28 -135 -31 -353 -6 -481 57 -288 211 -534 447 -712 128 -96 334 -185
469 -203 l51 -7 0 -305 0 -305 -27 24 c-16 13 -149 143 -298 289 -297 292
-338 323 -532 399 -201 80 -225 84 -544 89 -308 4 -346 0 -399 -44 -71 -61
-77 -110 -62 -574 9 -273 13 -316 36 -406 57 -231 154 -408 310 -573 130 -135
241 -208 467 -306 214 -92 245 -112 383 -243 137 -130 311 -272 333 -272 12 0
14 36 11 253 l-3 252 -31 65 c-42 89 -101 159 -170 206 -33 21 -138 72 -234
114 -96 41 -205 92 -241 112 -188 105 -303 234 -366 410 -26 70 -27 84 -31
311 l-4 237 29 0 c97 0 257 -23 322 -45 156 -53 182 -74 624 -511 402 -398
410 -408 426 -555 4 -41 6 -272 3 -514 l-5 -440 54 -29 c30 -16 110 -65 179
-108 68 -43 129 -77 135 -75 7 3 12 200 15 608 5 655 3 630 63 731 25 43 580
601 730 735 152 135 253 179 453 196 71 6 138 8 147 4 15 -6 17 -27 17 -196 0
-220 -13 -306 -63 -413 -94 -202 -230 -310 -575 -454 -95 -40 -195 -87 -222
-104 -114 -73 -202 -205 -220 -332 -5 -35 -10 -150 -10 -255 0 -214 0 -215 63
-171 60 41 202 163 302 259 123 118 147 133 344 219 87 38 187 86 222 105 336
190 554 516 613 918 12 77 16 186 16 410 l0 305 -28 53 c-20 39 -41 62 -77 84
l-48 30 -306 0 c-301 -1 -308 -1 -403 -28 -131 -36 -255 -91 -363 -161 -73
-46 -140 -108 -355 -324 -146 -147 -273 -274 -282 -281 -17 -13 -18 3 -18 298
l0 311 23 0 c38 0 176 39 262 74 304 123 551 379 651 674 44 131 64 253 64
398 0 456 -222 822 -630 1038 -103 54 -185 82 -310 106 -98 19 -255 30 -325
24z m251 -474 c125 -32 230 -89 323 -176 120 -113 186 -226 216 -368 78 -381
-148 -748 -524 -848 -100 -26 -269 -29 -361 -5 -340 90 -567 396 -547 737 10
159 51 277 140 397 165 222 479 332 753 263z"/>
<path d="M5116 8098 c-163 -161 -223 -284 -214 -441 8 -134 58 -216 183 -299
88 -59 95 -70 95 -155 0 -63 3 -74 22 -87 30 -21 44 -20 68 4 16 16 20 33 20
88 0 76 7 87 100 149 62 42 121 108 150 168 22 44 25 64 25 156 0 105 0 106
-44 194 -37 76 -61 107 -155 202 -76 77 -118 113 -133 113 -15 0 -55 -31 -117
-92z"/>
<path d="M4156 5769 c-29 -22 -35 -64 -14 -102 6 -12 79 -88 162 -169 137
-136 153 -148 186 -148 58 0 100 63 72 107 -13 20 -265 276 -301 305 -40 33
-69 35 -105 7z"/>
<path d="M6064 5623 c-142 -146 -164 -172 -164 -200 0 -39 39 -73 84 -73 26 0
53 23 193 163 144 144 163 166 163 195 0 43 -38 82 -81 82 -27 0 -52 -21 -195
-167z"/>
<path d="M2835 4234 c-67 -34 -90 -58 -122 -121 -22 -47 -25 -63 -21 -126 3
-39 12 -87 22 -104 22 -45 78 -99 126 -123 169 -86 372 45 372 241 0 190 -209
319 -377 233z"/>
<path d="M3617 4204 c-4 -4 -7 -139 -7 -301 l0 -293 -140 0 -140 0 0 -235 0
-235 139 0 139 0 4 -352 c4 -336 5 -356 27 -418 45 -127 90 -200 186 -296 76
-77 105 -98 185 -137 151 -74 179 -79 470 -84 215 -4 258 -2 275 10 19 14 20
29 23 217 3 175 1 204 -13 220 -15 16 -42 18 -258 22 -217 4 -247 7 -287 25
-66 30 -110 71 -136 128 -23 49 -24 56 -24 357 l0 308 353 2 352 3 3 166 c2
158 1 167 -21 199 -30 46 -77 76 -138 89 -28 6 -159 11 -299 11 l-250 0 -2
298 -3 297 -216 3 c-118 1 -218 -1 -222 -4z"/>
<path d="M5654 3645 c-180 -32 -329 -107 -462 -230 -123 -114 -216 -278 -253
-445 -17 -80 -20 -119 -16 -250 5 -179 24 -267 87 -392 57 -114 93 -163 194
-263 164 -161 354 -237 596 -238 137 -1 209 13 334 61 182 71 396 270 396 369
0 32 -3 35 -108 87 -59 30 -130 67 -158 83 -88 53 -97 52 -144 -17 -81 -115
-190 -165 -343 -158 -113 5 -180 34 -255 112 -53 53 -102 138 -102 176 l0 22
546 -3 546 -4 29 33 29 32 0 181 c0 168 1 182 21 209 20 27 21 33 11 85 -30
150 -186 337 -369 443 -183 106 -383 143 -579 107z m297 -447 c91 -42 170
-125 194 -205 l6 -23 -365 0 -366 0 25 50 c48 95 117 152 230 193 74 26 202
19 276 -15z"/>
<path d="M7564 3650 c-151 -22 -290 -107 -365 -223 -22 -33 -41 -63 -43 -65
-3 -2 -13 17 -25 42 -27 63 -112 150 -169 174 -26 11 -73 22 -106 24 l-59 3
-4 -805 c-2 -443 -1 -838 2 -877 l7 -73 152 0 c138 0 156 2 196 23 24 12 58
39 74 60 l31 39 6 461 c3 286 9 474 16 492 83 236 326 333 563 224 108 -49
105 -53 108 149 2 153 0 176 -17 209 -32 63 -86 103 -172 127 -74 20 -135 25
-195 16z"/>
<path d="M2700 2773 l0 -810 23 -33 c42 -62 69 -75 168 -79 50 -1 105 0 124 3
45 9 93 50 116 101 17 37 19 79 19 632 0 394 -4 610 -11 645 -40 192 -191 335
-365 346 l-74 5 0 -810z"/>
<path d="M2679 1468 c-52 -30 -83 -88 -76 -145 6 -58 32 -92 90 -122 40 -19
56 -22 101 -17 76 10 84 18 88 104 l4 72 -63 0 c-48 0 -65 -4 -69 -15 -9 -21
14 -45 42 -45 17 0 24 -6 24 -19 0 -26 -15 -34 -59 -33 -71 3 -106 88 -60 146
23 29 74 36 108 14 15 -9 23 -8 43 8 29 23 26 39 -12 59 -42 22 -118 19 -161
-7z"/>
<path d="M2990 1341 l0 -151 24 0 c13 0 31 -3 40 -6 13 -5 16 2 16 40 0 43 2
46 26 46 17 0 40 -14 66 -40 31 -31 48 -40 74 -40 19 0 34 3 34 8 0 4 -14 24
-31 45 l-31 37 26 31 c37 43 36 98 -3 141 -29 33 -30 33 -135 36 l-106 4 0
-151z m188 65 c12 -12 14 -22 6 -43 -8 -25 -15 -28 -62 -31 l-52 -3 0 48 0 48
46 -1 c27 -1 53 -8 62 -18z"/>
<path d="M3380 1340 l0 -150 125 0 125 0 0 30 0 30 -90 0 -90 0 0 30 0 29 72
3 c70 3 71 3 72 31 l2 27 -74 0 -73 0 3 27 c3 26 4 27 83 28 l80 2 3 31 3 32
-120 0 -121 0 0 -150z"/>
<path d="M3740 1340 l0 -150 120 0 120 0 0 30 0 30 -85 0 -85 0 0 30 0 30 70
0 70 0 0 30 0 30 -70 0 c-68 0 -70 1 -70 25 0 23 3 24 78 27 l77 3 3 33 3 32
-115 0 -116 0 0 -150z"/>
<path d="M4074 1476 c-3 -8 -4 -74 -2 -146 2 -103 6 -133 18 -140 24 -15 29 0
32 85 l3 80 75 -88 c55 -65 80 -87 95 -85 19 3 20 10 20 153 l0 150 -27 3 -27
3 -3 -87 -3 -88 -75 87 c-74 86 -95 101 -106 73z"/>
<path d="M4830 1467 c-52 -27 -80 -75 -80 -136 0 -85 58 -139 158 -148 46 -4
65 0 102 19 24 13 46 28 48 35 2 6 -11 19 -29 29 -30 15 -35 15 -60 0 -99 -58
-199 46 -120 125 36 35 77 38 115 8 l28 -22 26 20 c36 27 34 43 -7 70 -46 31
-122 31 -181 0z"/>
<path d="M5193 1470 c-64 -39 -87 -110 -59 -184 38 -99 142 -132 236 -75 42
26 74 98 65 148 -8 44 -46 96 -85 116 -41 21 -118 19 -157 -5z m142 -73 c59
-50 21 -147 -56 -147 -48 0 -79 36 -79 91 0 74 77 106 135 56z"/>
<path d="M5500 1340 l0 -150 30 0 30 0 0 80 c0 44 3 80 6 80 3 0 25 -21 47
-46 l42 -46 33 46 c18 25 37 46 42 46 5 0 10 -35 12 -77 3 -77 3 -78 31 -81
l27 -3 0 150 c0 179 -3 182 -92 94 l-58 -57 -51 57 c-35 40 -58 57 -75 57
l-24 0 0 -150z"/>
<path d="M5880 1376 c0 -128 7 -176 25 -176 13 0 25 52 25 115 l0 39 46 -44
46 -45 44 50 44 50 0 -87 0 -88 35 0 36 0 -3 148 c-3 141 -4 147 -24 150 -15
2 -36 -14 -73 -54 l-52 -57 -57 56 c-86 85 -92 81 -92 -57z"/>
<path d="M6257 1483 c-4 -3 -7 -51 -7 -105 0 -142 24 -188 97 -188 16 0 37 6
48 13 19 14 13 37 -9 37 -7 0 -23 12 -37 26 -21 23 -24 36 -27 125 l-4 99 -27
0 c-15 0 -31 -3 -34 -7z"/>
<path d="M6544 1477 c-2 -7 -3 -76 -2 -152 l3 -140 38 -1 37 -1 0 91 0 91 94
-94 c129 -129 130 -128 134 67 l3 153 -38 -3 -38 -3 -3 -83 -3 -83 -92 86
c-88 82 -122 100 -133 72z"/>
<path d="M6977 1483 c-4 -3 -7 -71 -7 -149 l0 -144 25 -6 c53 -13 55 -7 55
156 l0 150 -33 0 c-19 0 -37 -3 -40 -7z"/>
<path d="M7150 1455 l0 -35 54 0 53 0 7 -46 c3 -26 6 -78 6 -115 l0 -69 35 0
35 0 0 114 0 115 48 3 c45 3 47 4 50 36 l3 32 -145 0 -146 0 0 -35z"/>
<path d="M7510 1482 c0 -5 24 -49 54 -98 30 -49 58 -103 62 -119 4 -17 14 -38
22 -48 16 -18 17 -18 23 0 4 10 8 32 9 48 0 19 23 64 60 119 32 50 57 93 54
98 -3 4 -17 8 -32 8 -21 0 -35 -12 -65 -55 -21 -30 -42 -55 -47 -55 -5 0 -23
25 -40 55 -29 50 -35 55 -66 55 -19 0 -34 -4 -34 -8z"/>
</g>
</svg>
